<?xml version="1.0" encoding="UTF-8"?>
<svg width="32" height="32" viewBox="0 0 32 32" xmlns="http://www.w3.org/2000/svg">
  <defs>
    <!-- Radial gradient for the sun -->
    <radialGradient id="sunGradient" cx="50%" cy="30%" r="80%">
      <stop offset="0%" style="stop-color:#FFD700;stop-opacity:1" />
      <stop offset="60%" style="stop-color:#FFA500;stop-opacity:1" />
      <stop offset="100%" style="stop-color:#FF8C00;stop-opacity:1" />
    </radialGradient>
    
    <!-- Drop shadow filter -->
    <filter id="dropShadow" x="-50%" y="-50%" width="200%" height="200%">
      <feGaussianBlur in="SourceAlpha" stdDeviation="2"/>
      <feOffset dx="1" dy="1" result="offset"/>
      <feComponentTransfer>
        <feFuncA type="linear" slope="0.4"/>
      </feComponentTransfer>
      <feMerge> 
        <feMergeNode/>
        <feMergeNode in="SourceGraphic"/> 
      </feMerge>
    </filter>
    
    <!-- Glow effect -->
    <filter id="glow" x="-50%" y="-50%" width="200%" height="200%">
      <feGaussianBlur stdDeviation="2" result="coloredBlur"/>
      <feMerge>
        <feMergeNode in="coloredBlur"/>
        <feMergeNode in="SourceGraphic"/>
      </feMerge>
    </filter>
  </defs>
  
  <!-- Outer sun rays -->
  <g transform="translate(16,16)" fill="#FFD700" opacity="0.7">
    <polygon points="0,-14 1,-10 -1,-10" transform="rotate(0)"/>
    <polygon points="0,-14 1,-10 -1,-10" transform="rotate(45)"/>
    <polygon points="0,-14 1,-10 -1,-10" transform="rotate(90)"/>
    <polygon points="0,-14 1,-10 -1,-10" transform="rotate(135)"/>
    <polygon points="0,-14 1,-10 -1,-10" transform="rotate(180)"/>
    <polygon points="0,-14 1,-10 -1,-10" transform="rotate(225)"/>
    <polygon points="0,-14 1,-10 -1,-10" transform="rotate(270)"/>
    <polygon points="0,-14 1,-10 -1,-10" transform="rotate(315)"/>
  </g>
  
  <!-- Inner sun rays -->
  <g transform="translate(16,16)" fill="#FFA500" opacity="0.8">
    <polygon points="0,-10 0.8,-7 -0.8,-7" transform="rotate(22.5)"/>
    <polygon points="0,-10 0.8,-7 -0.8,-7" transform="rotate(67.5)"/>
    <polygon points="0,-10 0.8,-7 -0.8,-7" transform="rotate(112.5)"/>
    <polygon points="0,-10 0.8,-7 -0.8,-7" transform="rotate(157.5)"/>
    <polygon points="0,-10 0.8,-7 -0.8,-7" transform="rotate(202.5)"/>
    <polygon points="0,-10 0.8,-7 -0.8,-7" transform="rotate(247.5)"/>
    <polygon points="0,-10 0.8,-7 -0.8,-7" transform="rotate(292.5)"/>
    <polygon points="0,-10 0.8,-7 -0.8,-7" transform="rotate(337.5)"/>
  </g>
  
  <!-- Main sun circle -->
  <circle cx="16" cy="16" r="7" fill="url(#sunGradient)" filter="url(#glow)"/>
  
  <!-- Sun face -->
  <g transform="translate(16,16)" fill="#FF8C00">
    <!-- Eyes -->
    <circle cx="-2.5" cy="-1.5" r="0.8" fill="#FF8C00"/>
    <circle cx="2.5" cy="-1.5" r="0.8" fill="#FF8C00"/>
    <!-- Smile -->
    <path d="M -3,1 Q 0,4 3,1" stroke="#FF8C00" stroke-width="1" fill="none" stroke-linecap="round"/>
  </g>
  
  <!-- Subtle outer glow -->
  <circle cx="16" cy="16" r="7.5" fill="none" stroke="#FFD700" stroke-width="0.5" opacity="0.3" filter="url(#dropShadow)"/>
</svg>